<?xml version="1.0" standalone="no"?>
<!DOCTYPE svg PUBLIC "-//W3C//DTD SVG 20010904//EN"
 "http://www.w3.org/TR/2001/REC-SVG-20010904/DTD/svg10.dtd">
<svg version="1.0" xmlns="http://www.w3.org/2000/svg"
 width="468pt" height="251pt" viewBox="0 0 468 251"
 preserveAspectRatio="xMidYMid meet">
<metadata>
Created by potrace 1.8, written by Peter Selinger 2001-2007
</metadata>
<g transform="translate(0,251) scale(0.023423,-0.023423)"
fill="#000000" stroke="none">
<path d="M150 10552 c0 -4 0 -2327 0 -5162 l0 -5155 9795 0 9795 0 0 5160 0
5160 -9795 2 c-5387 2 -9795 0 -9795 -5z m19512 -80 c10 -10 14 -367 18 -1830
5 -1731 4 -1818 -13 -1845 -13 -20 -15 -32 -8 -46 7 -12 10 -1123 11 -3214 0
-2902 -1 -3197 -16 -3211 -14 -15 -881 -16 -9714 -16 -9597 0 -9699 0 -9710
19 -9 18 -12 1174 -15 5586 -1 2064 7 4533 15 4545 13 21 2096 25 11782 25
6214 0 7640 -3 7650 -13z"/>
<path d="M18640 10395 c-36 -7 -82 -20 -102 -28 -60 -25 -244 -154 -278 -194
-36 -44 -123 -239 -139 -313 -6 -28 -11 -93 -11 -144 0 -117 25 -217 86 -336
62 -123 130 -190 254 -253 225 -113 378 -113 600 -2 150 75 195 118 264 254
116 227 124 394 30 625 -62 150 -102 201 -212 269 -138 85 -201 114 -279 126
-88 14 -129 13 -213 -4z m286 -73 c34 -10 68 -24 75 -31 28 -23 137 -91 146
-91 18 0 102 -98 109 -127 4 -15 21 -57 39 -93 52 -102 59 -135 59 -260 0
-126 -25 -233 -65 -284 -11 -14 -25 -43 -31 -64 -13 -48 -144 -182 -177 -182
-13 0 -43 -13 -67 -30 -68 -46 -144 -65 -259 -64 -116 0 -216 26 -266 68 -17
14 -38 26 -47 26 -46 0 -192 149 -192 196 0 13 -8 32 -18 42 -40 40 -74 174
-73 292 1 112 16 180 57 257 19 34 34 71 34 81 0 24 85 129 111 137 16 5 63
36 155 100 11 8 54 24 95 35 92 25 224 22 315 -8z"/>
<path d="M18698 10250 c-26 -5 -85 -21 -130 -36 -74 -25 -91 -36 -154 -99 -39
-38 -84 -94 -100 -124 -16 -29 -35 -65 -43 -80 -11 -20 -15 -66 -15 -191 1
-145 3 -171 22 -212 26 -59 120 -178 170 -215 20 -15 41 -34 45 -41 5 -8 30
-23 55 -34 41 -19 67 -21 212 -22 181 0 176 -2 269 69 90 69 177 167 206 235
18 39 20 67 19 225 0 169 -2 182 -23 215 -12 19 -39 62 -60 95 -21 33 -60 79
-88 102 -96 81 -271 132 -385 113z m122 -95 c5 -29 7 -30 78 -37 63 -7 79 -13
126 -47 60 -45 121 -116 111 -131 -3 -5 -33 -10 -65 -10 -33 0 -82 -5 -111
-11 l-51 -11 -38 37 c-21 21 -43 34 -49 30 -17 -10 -9 -126 9 -135 8 -4 45
-15 82 -24 68 -16 159 -64 210 -110 33 -30 48 -89 38 -146 -9 -50 -58 -123
-85 -129 -11 -2 -37 -17 -58 -33 -30 -24 -54 -32 -120 -42 l-82 -11 3 -53 4
-52 -47 0 -48 0 6 49 c7 60 -3 71 -63 71 -58 0 -144 25 -167 48 -10 10 -29 23
-44 29 -27 12 -90 119 -82 141 3 7 23 12 51 12 26 0 80 5 121 10 80 11 101 4
101 -32 0 -23 65 -92 79 -84 10 7 9 175 -2 192 -3 6 -42 14 -85 17 -97 8 -120
17 -166 72 -72 87 -76 152 -14 245 48 73 95 99 192 107 62 6 90 18 80 35 -14
22 6 39 43 36 33 -3 39 -7 43 -33z m370 -271 c13 -34 13 -144 0 -144 -17 0
-125 92 -125 107 0 12 77 59 103 62 7 0 17 -11 22 -25z m-826 -49 c10 -24 35
-70 56 -102 29 -43 36 -60 28 -70 -6 -7 -17 -13 -26 -13 -8 0 -30 -12 -49 -26
-58 -44 -66 -32 -61 109 4 157 20 188 52 102z m242 -545 c20 -8 24 -14 16 -22
-8 -8 -19 -7 -42 2 -60 25 -36 43 26 20z"/>
<path d="M18688 9969 c-36 -21 -40 -45 -12 -78 14 -17 34 -31 45 -31 17 0 19
8 19 60 0 64 -11 74 -52 49z"/>
<path d="M18814 9565 c0 -82 1 -85 23 -85 29 0 93 56 93 82 0 27 -65 88 -94
88 -21 0 -22 -4 -22 -85z"/>
<path d="M1055 10336 c-72 -13 -225 -73 -283 -112 -41 -27 -85 -78 -149 -174
-68 -102 -79 -124 -104 -221 -18 -71 -21 -101 -16 -194 6 -122 25 -188 83
-294 78 -144 166 -228 310 -297 144 -69 296 -79 450 -28 98 32 124 45 214 114
92 70 146 138 202 256 l43 89 0 185 c0 209 -3 223 -73 345 -67 117 -165 212
-272 262 -148 70 -277 92 -405 69z m260 -70 c33 -9 80 -28 104 -42 24 -13 48
-24 53 -24 31 0 157 -134 216 -230 65 -106 66 -111 67 -310 l0 -185 -44 -80
c-62 -111 -125 -191 -160 -203 -16 -6 -37 -22 -47 -36 -9 -15 -48 -41 -88 -60
-165 -78 -313 -85 -461 -21 -155 67 -253 156 -323 294 -18 36 -36 70 -41 75
-28 37 -47 209 -32 303 19 125 39 170 131 295 25 34 55 76 68 95 12 18 37 40
55 47 18 8 66 29 107 47 41 18 95 39 120 46 59 16 200 11 275 -11z"/>
<path d="M1055 10194 c-99 -11 -275 -133 -297 -205 -6 -23 -20 -46 -30 -53
-10 -6 -30 -47 -45 -91 -49 -148 -34 -333 37 -438 15 -23 32 -55 35 -69 8 -33
117 -138 142 -138 10 0 47 -14 83 -32 54 -26 80 -32 155 -36 66 -3 102 0 135
11 201 71 191 66 249 137 70 86 121 172 135 227 24 99 28 163 12 243 -25 131
-40 161 -126 263 -20 23 -43 54 -52 68 -9 14 -52 45 -98 68 -78 41 -84 43
-188 46 -59 2 -125 1 -147 -1z m185 -99 c5 -28 9 -30 65 -37 73 -10 160 -51
182 -86 10 -15 25 -35 36 -45 37 -37 17 -47 -133 -66 -93 -12 -87 -14 -122 48
-10 18 -22 29 -30 26 -17 -7 -12 -134 6 -152 6 -7 45 -21 86 -32 118 -30 170
-59 203 -113 20 -31 29 -60 29 -90 1 -63 -11 -106 -31 -113 -10 -3 -25 -20
-34 -39 -21 -45 -108 -88 -188 -94 -71 -5 -84 -18 -70 -66 9 -33 8 -36 -13
-42 -13 -3 -38 -4 -57 -2 -32 3 -34 5 -34 43 0 57 -9 65 -69 65 -64 0 -145 38
-214 101 -51 47 -85 99 -74 116 4 5 50 13 102 17 52 3 109 9 126 12 30 6 32 4
45 -37 15 -46 56 -83 80 -74 13 5 14 15 8 53 -4 26 -5 63 -2 84 6 42 -5 51
-77 63 -25 4 -61 16 -80 26 -19 11 -51 24 -70 29 -53 15 -84 67 -88 150 l-4
68 49 50 c59 60 143 102 206 102 41 0 75 18 61 33 -4 3 -4 13 0 22 4 12 17 15
53 13 44 -3 48 -5 53 -33z m351 -282 c14 -36 24 -133 14 -133 -11 0 -125 100
-125 110 0 12 62 50 83 50 10 0 22 -12 28 -27z m-813 -75 c17 -29 44 -66 62
-82 17 -16 29 -33 27 -39 -2 -6 -21 -16 -42 -24 -21 -7 -47 -20 -56 -29 -42
-38 -66 19 -56 130 6 66 15 96 27 96 5 0 22 -24 38 -52z"/>
<path d="M1092 9930 c-25 -10 -42 -46 -34 -70 9 -26 45 -60 64 -60 17 0 19 7
16 67 -3 70 -9 77 -46 63z"/>
<path d="M1237 9593 c-4 -3 -7 -42 -7 -86 l0 -79 33 6 c36 7 66 40 67 72 0 26
-79 101 -93 87z"/>
<path d="M2153 9798 c-48 -12 -79 -57 -92 -131 -6 -35 -11 -73 -11 -84 0 -22
-43 -160 -65 -208 -8 -16 -24 -55 -35 -85 -41 -106 -209 -295 -336 -376 -90
-59 -221 -122 -289 -139 -33 -9 -102 -20 -154 -24 -94 -8 -95 -9 -133 -49
l-38 -42 0 -1607 c0 -885 0 -1612 0 -1618 -2 -36 0 -1282 3 -2200 3 -1007 4
-1092 20 -1122 23 -44 51 -60 117 -67 133 -16 235 -48 385 -122 139 -68 157
-80 226 -151 118 -122 176 -192 184 -220 3 -15 26 -71 51 -124 33 -72 50 -128
65 -211 32 -174 36 -187 72 -208 32 -20 118 -20 7814 -20 5860 0 7788 3 7807
12 41 18 55 51 66 150 13 131 33 198 92 313 82 160 203 309 313 385 58 40 229
124 304 149 35 12 109 29 165 37 111 17 138 29 162 75 14 29 16 232 21 2208 5
2134 5 2177 24 2204 l20 27 -23 0 -23 0 0 1062 c0 1047 0 1063 -20 1090 -29
39 -78 56 -180 63 -71 5 -111 15 -190 46 -102 40 -115 47 -271 155 -105 73
-108 76 -209 223 -106 155 -151 268 -172 426 -16 119 -17 120 -56 158 l-39 38
-7772 -2 c-4274 -1 -7785 -6 -7803 -11z m15607 -138 c0 -97 14 -183 36 -217 8
-12 14 -28 14 -34 0 -23 83 -200 99 -212 20 -14 91 -117 91 -132 0 -13 112
-125 125 -125 6 0 39 -21 74 -47 92 -70 138 -97 216 -128 39 -15 75 -31 80
-35 22 -16 65 -23 188 -29 l127 -6 0 -3287 c0 -1809 0 -3292 0 -3298 0 -6 -26
-10 -57 -10 -124 0 -263 -39 -418 -118 -38 -19 -83 -42 -100 -50 -61 -31 -235
-185 -235 -208 0 -8 -15 -29 -32 -47 -18 -18 -55 -76 -82 -128 -27 -52 -54
-101 -61 -109 -28 -35 -60 -176 -65 -288 l-5 -112 -7810 0 c-4295 0 -7813 0
-7817 0 -5 0 -8 28 -8 63 0 107 -46 294 -87 356 -13 19 -28 52 -34 75 -19 73
-42 107 -145 215 -147 154 -166 171 -194 178 -33 8 -157 70 -165 82 -17 28
-271 91 -366 91 -38 0 -69 3 -69 8 0 4 0 1488 0 3297 l0 3290 122 6 c95 5 142
12 208 34 47 15 92 33 100 40 8 7 35 23 60 35 136 68 263 174 358 300 31 41
61 80 68 85 6 6 15 24 18 40 4 17 21 64 38 105 17 41 34 84 39 95 26 65 49
190 49 263 l0 52 7820 0 7820 0 0 -90z"/>
<path d="M9825 8915 c-5 -2 -55 -9 -110 -15 -121 -12 -197 -24 -250 -40 -22
-6 -56 -15 -75 -20 -79 -20 -107 -28 -140 -43 -19 -9 -91 -37 -160 -62 -126
-47 -330 -144 -330 -157 0 -7 -145 -109 -193 -135 -12 -7 -30 -13 -39 -13 -10
0 -23 -11 -30 -24 -7 -12 -54 -57 -104 -99 -101 -84 -262 -245 -319 -319 -21
-26 -45 -50 -55 -53 -10 -3 -21 -19 -25 -35 -3 -16 -13 -34 -21 -41 -8 -7 -40
-47 -70 -91 -31 -43 -59 -78 -63 -78 -12 0 -81 -110 -81 -129 0 -22 -49 -114
-67 -124 -12 -7 -56 -88 -164 -300 -15 -29 -29 -72 -33 -95 -3 -24 -17 -65
-30 -92 -13 -26 -38 -88 -55 -138 -17 -50 -37 -105 -45 -124 -13 -30 -25 -68
-47 -153 -4 -16 -17 -60 -28 -97 -12 -37 -26 -115 -31 -175 -6 -59 -14 -128
-20 -153 -5 -25 -14 -85 -20 -135 -6 -49 -16 -117 -21 -150 -16 -110 -22 -520
-10 -695 12 -166 32 -332 51 -425 6 -27 14 -95 19 -150 7 -89 56 -307 81 -360
5 -11 26 -72 46 -135 20 -63 40 -119 44 -125 17 -22 62 -149 67 -188 3 -23 11
-49 18 -57 7 -8 35 -64 64 -125 29 -60 59 -117 67 -126 27 -30 105 -173 111
-204 3 -16 12 -33 19 -38 7 -4 51 -62 98 -130 46 -67 94 -128 105 -135 12 -7
21 -19 21 -28 0 -23 138 -183 181 -210 21 -13 46 -36 56 -51 35 -54 194 -201
223 -206 16 -4 31 -15 35 -26 3 -11 64 -59 135 -107 72 -48 130 -90 130 -94 0
-4 15 -11 33 -14 17 -3 72 -27 120 -54 49 -26 103 -55 120 -64 18 -9 66 -29
107 -44 41 -15 89 -33 105 -40 72 -32 127 -46 235 -59 63 -8 174 -22 245 -31
149 -19 373 -15 515 10 47 8 119 18 160 21 85 8 294 69 357 105 10 5 62 30
116 54 54 25 111 56 128 70 16 14 46 28 66 32 38 7 183 90 183 105 0 13 159
128 186 135 14 4 33 17 42 31 27 38 208 214 242 234 16 10 30 25 30 33 0 16
108 146 181 219 27 26 52 60 55 75 8 32 82 152 105 169 9 7 43 59 75 115 31
57 62 109 68 116 5 7 17 34 27 60 25 70 86 204 96 211 5 3 24 44 42 91 18 47
44 109 57 138 14 29 31 91 39 137 7 46 20 98 29 117 8 18 31 96 51 173 111
424 155 904 125 1340 -11 160 -37 360 -60 470 -6 28 -15 70 -20 95 -24 118
-29 139 -45 190 -9 30 -21 73 -27 95 -18 67 -30 108 -44 148 -8 20 -14 50 -14
65 0 30 -33 131 -56 172 -7 14 -34 75 -60 135 -25 61 -52 117 -59 125 -20 22
-65 122 -65 143 0 22 -26 75 -50 102 -10 11 -48 69 -84 129 -37 59 -80 121
-96 136 -17 15 -30 36 -30 47 0 22 -113 174 -141 188 -25 14 -99 103 -99 119
0 14 -108 117 -189 181 -28 22 -56 50 -63 62 -20 34 -145 131 -178 138 -16 4
-40 19 -53 35 -22 26 -131 99 -222 149 -22 12 -54 32 -72 45 -18 13 -51 26
-74 30 -24 4 -75 22 -115 41 -40 19 -108 46 -151 60 -43 14 -100 33 -128 42
-48 16 -76 22 -195 44 -135 24 -457 47 -485 34z m266 -65 c232 -23 452 -75
614 -147 44 -19 111 -46 149 -59 67 -23 265 -138 378 -218 31 -23 75 -52 98
-66 23 -14 79 -60 123 -104 45 -43 106 -96 134 -118 29 -22 76 -72 105 -112
29 -39 84 -105 123 -147 38 -41 81 -94 95 -117 14 -24 52 -82 85 -130 104
-151 178 -273 203 -336 13 -34 41 -95 62 -136 66 -130 157 -343 170 -400 7
-30 34 -133 62 -229 50 -177 92 -364 108 -480 5 -36 14 -102 20 -146 6 -44 17
-179 25 -300 11 -180 11 -224 1 -240 -10 -15 -11 -38 -5 -90 9 -68 -5 -265
-32 -455 -24 -179 -92 -481 -139 -619 -10 -31 -24 -85 -30 -121 -13 -72 -72
-223 -156 -397 -30 -64 -64 -139 -75 -167 -29 -73 -70 -144 -164 -281 -45 -66
-92 -140 -105 -164 -12 -25 -44 -67 -70 -95 -26 -28 -78 -90 -117 -138 -90
-111 -305 -318 -408 -391 -44 -32 -109 -80 -145 -108 -36 -28 -105 -71 -155
-95 -49 -23 -110 -54 -135 -68 -133 -76 -398 -173 -495 -182 -27 -3 -97 -12
-155 -22 -148 -23 -471 -23 -645 1 -233 32 -259 38 -365 78 -256 97 -538 253
-719 398 -35 28 -67 51 -72 51 -13 0 -295 285 -359 362 -127 156 -272 362
-319 457 -23 45 -62 113 -86 151 -25 39 -45 72 -45 75 0 3 -18 42 -40 87 -36
77 -57 130 -177 468 -62 175 -110 368 -123 496 -6 60 -15 127 -20 149 -5 22
-14 101 -20 175 -7 74 -16 145 -21 158 -12 30 -11 449 1 628 5 78 16 186 24
240 8 55 24 169 36 256 23 175 77 377 160 598 28 74 65 175 81 223 32 94 99
228 187 371 30 49 62 109 73 132 20 47 49 92 90 139 14 17 54 71 89 120 117
165 330 387 525 545 72 59 379 261 425 279 336 135 541 201 685 221 228 32
310 35 466 20z"/>
<path d="M9665 8495 c-192 -18 -321 -52 -490 -130 -285 -131 -360 -174 -480
-275 -44 -36 -101 -81 -127 -98 -26 -18 -73 -60 -105 -94 -32 -35 -95 -100
-140 -145 -45 -45 -95 -102 -109 -125 -15 -24 -60 -83 -99 -133 -98 -122 -124
-165 -257 -425 -74 -144 -127 -261 -147 -325 -17 -55 -49 -156 -71 -225 -70
-223 -108 -390 -147 -640 -26 -169 -26 -834 0 -995 41 -250 111 -537 167 -680
11 -27 28 -86 39 -131 11 -44 45 -131 76 -192 30 -61 55 -114 55 -117 0 -3 20
-38 44 -78 24 -39 54 -97 67 -127 25 -61 65 -125 134 -215 25 -33 76 -100 113
-150 88 -119 311 -345 440 -448 57 -45 144 -106 194 -135 50 -29 114 -67 142
-86 133 -88 301 -148 591 -212 99 -22 288 -44 377 -44 115 0 313 25 433 53
189 46 304 77 342 93 52 22 278 148 335 187 25 18 74 48 109 67 34 19 100 71
148 115 47 44 110 100 139 124 29 24 74 71 100 105 25 33 81 97 122 141 41 44
105 127 140 184 168 266 229 373 250 432 12 35 40 100 61 144 88 187 183 465
199 586 5 41 14 99 20 129 33 172 59 364 70 500 7 85 16 163 22 173 7 14 5 23
-6 36 -13 14 -16 46 -16 172 -1 199 -12 319 -49 522 -17 90 -35 200 -40 243
-15 132 -123 433 -293 817 -19 42 -79 141 -222 363 -74 116 -298 375 -406 469
-147 129 -410 324 -436 325 -6 0 -67 27 -135 61 -245 121 -422 171 -659 188
-190 14 -313 13 -495 -4z m508 -55 c82 -5 167 -14 190 -20 70 -19 111 -31 132
-40 11 -5 40 -16 65 -24 81 -26 185 -69 195 -80 15 -16 133 -72 182 -85 23 -6
48 -20 55 -30 7 -10 54 -46 103 -79 50 -34 108 -78 130 -99 22 -21 52 -46 66
-55 50 -32 199 -180 205 -204 3 -13 15 -26 25 -29 11 -4 58 -55 104 -113 47
-59 96 -119 110 -134 14 -15 25 -33 25 -41 0 -13 89 -157 131 -210 38 -49 109
-196 109 -227 0 -15 5 -30 10 -32 11 -3 70 -132 92 -198 6 -19 17 -44 24 -55
14 -21 64 -166 64 -184 0 -6 9 -30 19 -54 23 -51 27 -69 52 -227 11 -69 24
-147 29 -175 39 -223 50 -338 57 -591 7 -263 -13 -516 -57 -729 -14 -67 -27
-146 -38 -225 -11 -73 -63 -259 -86 -305 -8 -16 -33 -79 -56 -139 -22 -60 -45
-115 -52 -123 -19 -23 -58 -114 -58 -134 0 -26 -27 -91 -43 -104 -7 -5 -44
-65 -82 -133 -39 -67 -78 -125 -87 -128 -10 -3 -22 -22 -28 -43 -11 -40 -110
-180 -139 -196 -21 -11 -121 -128 -121 -141 0 -13 -113 -124 -126 -124 -7 0
-45 -33 -86 -73 -91 -91 -176 -155 -221 -168 -19 -5 -48 -22 -64 -38 -15 -16
-73 -53 -128 -82 -55 -29 -107 -58 -115 -65 -28 -23 -144 -64 -200 -71 -30 -3
-60 -9 -66 -14 -21 -17 -272 -70 -379 -81 -221 -21 -496 6 -680 66 -44 14 -94
26 -112 26 -18 0 -56 10 -85 22 -106 45 -248 118 -248 126 0 4 -17 16 -37 26
-20 10 -60 33 -89 52 -28 19 -58 34 -67 34 -9 0 -32 15 -50 33 -19 17 -83 72
-143 121 -90 74 -165 149 -341 341 -7 7 -13 16 -13 19 0 2 -30 44 -66 92 -36
48 -71 98 -77 111 -5 12 -17 25 -26 28 -20 7 -80 108 -88 149 -7 34 -40 95
-60 111 -7 6 -34 57 -61 115 -26 58 -55 116 -64 130 -22 34 -58 143 -58 177 0
16 -8 44 -19 64 -10 19 -29 71 -41 114 -12 44 -31 107 -42 140 -17 53 -40 151
-69 295 -68 333 -76 836 -19 1195 35 217 41 248 50 270 5 11 11 34 15 50 3 17
10 46 15 65 5 19 12 49 15 65 4 17 11 39 16 50 17 38 77 230 84 268 7 43 82
227 99 242 6 6 45 78 86 160 85 172 161 299 199 335 34 32 104 128 118 161 14
32 71 99 93 108 8 3 45 40 82 81 102 115 129 140 164 158 49 25 152 105 158
122 8 21 174 126 214 135 17 3 32 10 32 15 0 7 218 110 235 110 5 0 16 6 24
13 9 7 48 23 86 35 39 12 99 31 135 42 111 34 421 48 693 30z"/>
<path d="M9821 7823 l4 -138 -95 -7 c-104 -7 -203 -21 -265 -37 -22 -5 -60
-14 -85 -20 -25 -5 -65 -17 -88 -25 -23 -9 -61 -23 -84 -32 -88 -32 -203 -88
-218 -105 -8 -10 -31 -22 -51 -27 -44 -12 -164 -104 -184 -141 -8 -14 -30 -42
-50 -61 -20 -19 -48 -46 -62 -60 -34 -33 -119 -174 -137 -224 -20 -60 -53
-174 -65 -226 -5 -25 -15 -66 -20 -92 -6 -26 -11 -108 -11 -182 0 -151 11
-222 60 -381 10 -33 21 -75 25 -93 12 -58 151 -266 185 -277 23 -7 80 -71 80
-88 0 -24 194 -160 247 -173 15 -4 70 -25 122 -46 52 -21 99 -38 104 -38 6 0
18 -6 26 -14 9 -7 63 -28 121 -46 58 -18 110 -36 115 -40 21 -15 119 -41 183
-49 37 -5 86 -14 110 -21 l42 -13 1 -486 c1 -267 4 -499 8 -516 l7 -30 17 32
c15 29 17 77 17 472 0 242 4 451 9 464 8 21 3 31 -42 79 -47 50 -58 56 -117
68 -134 26 -315 87 -550 183 -47 19 -107 43 -134 53 -89 32 -186 106 -292 220
-159 172 -185 217 -240 414 -38 134 -38 136 -39 325 l0 190 41 140 c57 196
112 295 228 411 17 17 57 58 89 91 95 100 333 219 568 284 107 29 271 59 333
59 48 1 113 35 130 69 10 19 16 56 16 99 0 103 4 106 148 111 111 3 122 1 141
-18 17 -17 21 -33 21 -80 0 -107 40 -166 119 -176 320 -41 492 -90 723 -208
132 -67 143 -75 262 -191 118 -115 127 -126 185 -241 116 -228 124 -278 44
-290 -21 -3 -60 -10 -88 -15 -41 -8 -259 -45 -540 -91 -27 -4 -87 -15 -133
-23 -55 -10 -91 -12 -107 -6 -16 6 -39 40 -76 112 -60 117 -134 203 -213 247
-114 64 -154 49 -59 -23 151 -114 181 -153 258 -341 26 -62 38 -79 52 -78 22
3 107 18 183 33 30 5 82 14 115 20 33 5 85 14 115 20 30 5 84 14 120 20 36 5
88 14 115 20 28 6 79 15 115 20 36 5 88 14 115 20 28 5 75 12 105 16 84 9 83
8 65 51 -9 21 -30 79 -47 128 -17 50 -36 97 -43 105 -22 26 -85 152 -85 170 0
25 -296 319 -329 327 -32 7 -136 59 -170 84 -14 10 -78 37 -141 60 -109 38
-145 48 -250 69 -150 28 -183 33 -260 36 l-85 3 -3 140 -3 141 -215 0 -216 0
3 -137z"/>
<path d="M9682 6945 c-84 -42 -169 -123 -209 -197 -26 -50 -28 -61 -28 -173 0
-118 1 -121 33 -177 62 -106 236 -238 315 -238 31 0 74 48 82 93 3 18 5 175 3
350 l-3 319 -33 29 c-43 38 -73 37 -160 -6z m148 -35 c-3 -14 -5 -181 -5 -373
0 -312 -2 -347 -16 -347 -9 0 -27 10 -41 23 -14 12 -42 31 -64 42 -40 20 -140
115 -183 174 -21 29 -24 43 -24 139 -1 106 0 108 36 169 42 70 84 108 168 153
32 17 61 35 65 41 3 6 20 9 37 7 28 -3 31 -6 27 -28z"/>
<path d="M10207 6903 c-9 -21 -12 -130 -12 -408 l0 -380 23 -33 c25 -34 75
-64 127 -76 17 -4 120 -36 230 -72 110 -35 225 -72 255 -81 68 -22 315 -144
430 -213 94 -56 133 -90 191 -165 22 -27 66 -81 99 -120 46 -54 59 -75 55 -93
-4 -15 4 -34 24 -60 61 -78 86 -224 85 -492 0 -277 -22 -377 -117 -535 -126
-211 -242 -346 -375 -439 -160 -111 -313 -195 -401 -220 -74 -21 -279 -53
-431 -67 -191 -19 -200 -33 -200 -315 0 -157 -3 -204 -14 -220 -13 -17 -29
-19 -139 -22 -166 -5 -157 -19 -157 241 0 222 -7 253 -62 286 -18 11 -50 23
-73 26 -22 3 -85 12 -140 20 -55 9 -138 20 -185 26 -150 17 -289 72 -490 192
-104 63 -157 102 -231 174 -53 51 -113 117 -133 145 -83 117 -161 265 -203
388 -46 134 -51 170 -29 193 18 17 133 33 391 52 110 8 261 24 335 34 219 31
263 34 281 19 9 -7 37 -80 63 -161 39 -119 57 -159 93 -208 55 -73 140 -144
211 -177 89 -40 165 -30 87 12 -19 11 -35 22 -35 26 0 5 -12 11 -27 15 -40 10
-139 92 -187 155 -45 60 -103 215 -127 340 -16 84 -23 91 -74 80 -86 -19 -539
-71 -695 -80 -91 -6 -192 -14 -225 -19 -33 -5 -84 -10 -113 -10 -36 -1 -54 -6
-58 -15 -10 -25 13 -173 34 -228 12 -29 33 -87 48 -128 15 -41 35 -84 45 -96
11 -11 19 -23 19 -27 0 -4 23 -44 50 -90 28 -46 50 -91 50 -100 0 -9 10 -23
23 -32 31 -22 237 -226 237 -235 0 -4 12 -11 27 -14 14 -4 45 -20 67 -35 23
-15 61 -39 86 -52 25 -13 50 -29 55 -36 6 -7 57 -31 115 -53 58 -23 121 -48
140 -56 19 -9 77 -20 130 -25 52 -5 101 -12 109 -15 24 -8 234 -36 277 -36 22
0 46 -3 53 -8 11 -6 13 -65 9 -279 -2 -149 0 -271 4 -271 5 0 96 0 203 0 107
0 200 0 205 0 7 0 11 86 10 263 -1 144 -1 270 0 280 0 15 5 17 28 13 33 -7
197 8 305 28 43 8 108 18 145 21 65 7 254 69 260 86 2 5 31 23 65 40 34 17 93
52 131 78 38 25 80 52 93 59 39 22 213 198 213 216 0 9 6 19 14 22 15 6 84
105 131 189 16 28 34 57 42 66 32 38 65 150 84 284 24 161 22 364 -4 548 -14
97 -21 121 -68 210 -72 141 -96 176 -145 220 -24 21 -46 48 -50 60 -3 12 -18
35 -33 50 -44 49 -148 127 -167 127 -10 0 -27 9 -39 20 -46 43 -419 220 -465
220 -22 0 -227 64 -280 87 -19 9 -51 20 -70 25 -19 5 -51 14 -70 19 -19 6 -53
14 -75 17 l-40 7 -5 420 c-3 231 -7 421 -8 423 -8 9 -24 -2 -35 -25z"/>
<path d="M10250 5060 c-8 -5 -12 -11 -10 -13 10 -9 221 -107 231 -107 17 0 91
-55 136 -102 59 -61 110 -156 118 -221 13 -100 -10 -169 -95 -286 -38 -53
-140 -141 -163 -141 -7 0 -58 -18 -113 -40 -54 -22 -101 -40 -104 -40 -3 0 -5
201 -5 447 0 472 -4 522 -39 455 -14 -27 -16 -83 -16 -437 0 -432 0 -435 49
-479 17 -15 30 -18 69 -13 53 6 145 36 199 64 91 48 184 151 236 261 29 61 32
76 32 162 0 105 -12 145 -69 233 -69 108 -170 182 -331 242 -70 27 -101 30
-125 15z"/>
<path d="M18430 6420 c-11 -7 -6 -10 20 -10 19 0 42 5 50 10 11 7 6 10 -20 10
-19 0 -42 -5 -50 -10z"/>
<path d="M17490 6180 c0 -13 70 -13 90 0 11 7 0 10 -37 10 -29 0 -53 -4 -53
-10z"/>
<path d="M3789 5930 c-86 -11 -250 -95 -324 -165 -33 -31 -72 -62 -86 -68 -30
-14 -119 -114 -119 -134 0 -19 -59 -133 -68 -133 -9 0 -56 -141 -73 -221 -26
-123 3 -402 52 -490 52 -96 89 -170 89 -180 0 -15 61 -99 72 -99 10 0 114 -87
158 -132 39 -39 157 -101 210 -110 25 -4 74 -14 110 -23 145 -34 244 -31 480
16 71 14 177 63 215 100 40 38 153 131 175 144 28 17 66 67 74 98 4 16 18 46
31 68 14 21 25 43 25 47 0 5 9 21 21 36 58 74 104 388 75 511 -27 114 -65 228
-80 240 -15 12 -76 125 -76 141 0 18 -80 114 -95 114 -12 0 -101 68 -154 119
-43 41 -200 110 -277 121 -78 11 -349 11 -435 0z m527 -88 c45 -18 98 -45 117
-60 242 -185 224 -165 314 -327 54 -95 104 -236 106 -295 2 -106 -13 -281 -28
-330 -18 -59 -115 -257 -146 -302 -33 -46 -246 -218 -301 -243 -55 -24 -208
-59 -314 -71 -111 -12 -346 31 -449 83 -27 13 -102 71 -165 127 l-115 102 -67
134 c-87 176 -103 248 -95 437 5 142 17 194 62 283 27 53 96 180 110 201 25
38 227 194 298 230 126 64 155 69 387 66 204 -3 205 -3 286 -35z"/>
<path d="M3947 5479 c-128 -18 -251 -110 -311 -232 -15 -31 -32 -57 -39 -60
-7 -2 -13 -40 -15 -108 -5 -124 12 -178 89 -294 53 -79 112 -126 183 -147 54
-15 260 -16 311 0 92 27 166 100 232 230 31 61 38 87 44 160 6 86 6 88 -32
167 -46 95 -114 185 -167 220 -82 54 -194 78 -295 64z m154 -60 c68 -21 140
-64 159 -94 11 -16 39 -57 63 -90 52 -72 72 -143 64 -224 -7 -63 -52 -158 -98
-206 -16 -17 -29 -36 -29 -43 0 -29 -79 -64 -165 -74 -162 -19 -320 18 -342
80 -3 9 -14 26 -24 37 -9 11 -34 49 -54 84 -64 115 -59 230 17 341 24 34 49
73 56 87 43 77 246 136 353 102z"/>
<path d="M15600 5930 c-100 -12 -313 -127 -352 -191 -10 -17 -32 -35 -48 -40
-49 -18 -189 -216 -209 -297 -5 -20 -21 -77 -35 -127 -50 -173 -44 -341 19
-526 14 -40 25 -79 25 -87 0 -27 130 -211 159 -227 16 -8 48 -36 72 -63 130
-143 340 -217 614 -216 76 0 139 5 151 11 11 7 60 19 108 27 48 8 101 23 116
33 66 41 189 135 236 180 51 47 166 212 180 256 3 12 13 29 21 39 30 34 65
188 70 313 5 106 2 133 -20 225 -35 144 -78 231 -181 365 -20 27 -36 54 -36
62 0 8 -15 20 -33 28 -18 7 -41 23 -52 36 -11 12 -50 42 -87 66 -38 24 -68 48
-68 52 0 15 -155 72 -221 81 -75 11 -335 11 -429 0z m400 -59 c0 -15 10 -20
57 -26 90 -11 178 -56 306 -157 112 -88 226 -265 278 -428 20 -64 23 -96 23
-215 0 -157 -16 -230 -78 -348 -76 -147 -146 -232 -260 -320 -137 -105 -150
-111 -316 -143 -162 -31 -347 -19 -514 34 -70 22 -177 97 -274 193 -124 121
-162 188 -214 381 -18 66 -22 108 -21 208 1 113 4 137 37 249 22 74 51 149 73
185 46 77 137 167 209 207 39 23 52 35 45 42 -6 6 -11 15 -11 20 0 4 48 31
106 59 128 61 206 76 412 77 133 1 142 0 142 -18z"/>
<path d="M15705 5475 c-159 -59 -236 -137 -288 -290 -22 -66 -26 -92 -23 -152
9 -145 83 -287 183 -351 126 -81 361 -82 478 -2 131 90 214 253 202 400 -11
148 -128 309 -277 379 -68 32 -209 40 -275 16z m236 -60 c23 -9 50 -22 58 -30
9 -7 38 -33 65 -57 141 -124 178 -281 104 -431 -28 -56 -99 -136 -162 -184
-22 -17 -48 -23 -120 -28 -126 -9 -215 6 -277 46 -55 35 -119 111 -119 141 0
10 -10 40 -21 66 -18 38 -21 60 -17 126 2 45 12 97 20 116 9 19 19 46 23 59
17 56 131 149 218 176 58 19 175 18 228 0z"/>
<path d="M16337 5919 c7 -7 24 -8 54 -1 l44 10 -54 1 c-40 1 -52 -2 -44 -10z"/>
<path d="M13234 5422 c5 -8 76 -4 76 4 0 2 -18 4 -41 4 -22 0 -38 -4 -35 -8z"/>
<path d="M18625 1795 c-230 -37 -347 -118 -460 -315 -138 -242 -137 -466 3
-720 57 -104 171 -204 307 -272 174 -87 411 -67 573 49 164 116 238 199 262
293 7 25 21 72 33 105 31 89 30 269 -1 385 -44 163 -96 244 -224 347 -77 63
-116 84 -186 103 -50 13 -202 40 -217 39 -5 -1 -46 -7 -90 -14z m236 -71 c30
-9 69 -18 88 -21 85 -14 298 -223 314 -308 3 -17 13 -50 22 -75 44 -119 42
-311 -4 -407 -12 -23 -21 -51 -21 -63 0 -40 -78 -160 -104 -160 -7 0 -28 -16
-47 -36 -18 -19 -50 -45 -69 -57 -19 -12 -40 -27 -45 -34 -6 -8 -42 -25 -80
-40 -114 -42 -313 -42 -390 -1 -113 62 -154 88 -194 123 -25 23 -54 44 -63 48
-10 3 -18 14 -18 22 0 9 -18 46 -40 82 -22 37 -40 71 -40 75 0 5 -10 30 -22
56 -33 71 -38 251 -9 356 23 83 56 156 70 156 5 0 21 24 35 53 26 55 93 125
162 170 36 23 181 70 249 81 47 7 146 -3 206 -20z"/>
<path d="M18655 1663 c-62 -8 -140 -36 -168 -59 -16 -13 -33 -24 -38 -24 -18
0 -189 -182 -189 -201 0 -10 -12 -65 -26 -121 -25 -97 -26 -108 -15 -196 6
-52 18 -107 26 -122 8 -16 15 -39 15 -52 0 -40 111 -188 141 -188 10 0 39 -17
66 -37 122 -93 315 -102 476 -21 21 10 47 28 57 38 11 11 26 20 34 20 24 0
104 100 147 185 56 109 71 219 46 336 -27 132 -56 182 -160 286 -100 100 -143
125 -255 148 -66 14 -97 16 -157 8z m125 -108 c5 -29 8 -30 70 -36 73 -8 137
-31 146 -53 3 -8 18 -20 34 -26 34 -14 76 -78 61 -93 -5 -5 -27 -11 -49 -13
-22 -2 -71 -8 -108 -14 -62 -10 -70 -9 -79 6 -22 36 -57 74 -71 74 -11 0 -13
-16 -11 -75 2 -41 6 -77 10 -81 11 -11 137 -43 170 -43 75 -2 169 -112 170
-199 1 -54 -31 -109 -103 -175 -49 -46 -73 -56 -170 -71 l-75 -12 3 -42 4 -42
-47 0 -48 0 6 40 c6 47 -9 60 -70 60 -47 0 -113 18 -133 36 -8 7 -36 31 -61
54 -55 48 -104 115 -94 129 3 6 34 11 69 11 34 0 88 5 119 11 63 13 87 4 87
-35 0 -14 13 -28 40 -43 21 -13 41 -19 44 -15 6 11 2 159 -5 167 -4 3 -43 15
-88 25 -63 15 -93 29 -132 60 -28 22 -54 40 -58 40 -16 0 -31 53 -31 105 0 63
25 122 54 131 12 3 35 19 51 34 34 31 89 50 151 50 39 0 72 19 58 33 -4 3 -4
13 0 22 4 12 16 15 43 13 33 -3 39 -7 43 -33z m372 -286 c21 -42 36 -143 20
-138 -11 4 -117 103 -127 119 -6 10 64 60 80 56 6 -1 18 -18 27 -37z m-825
-52 c6 -13 34 -48 62 -79 28 -31 51 -58 51 -61 0 -3 -21 -12 -47 -21 -25 -9
-55 -24 -65 -33 -17 -16 -20 -16 -36 1 -13 13 -17 34 -17 94 0 102 27 153 52
99z"/>
<path d="M18640 1382 c-13 -11 -22 -29 -22 -46 0 -31 37 -76 64 -76 16 0 18 9
18 70 0 62 -2 70 -19 70 -10 0 -29 -8 -41 -18z"/>
<path d="M18772 975 c0 -86 7 -91 78 -54 53 28 53 56 3 98 -21 17 -47 31 -59
31 -20 0 -22 -5 -22 -75z"/>
<path d="M1035 1784 c-188 -42 -257 -86 -369 -235 -86 -114 -108 -156 -135
-263 -91 -350 123 -723 475 -831 168 -52 355 -21 504 84 107 75 202 176 243
258 55 113 71 201 64 364 -9 212 -47 300 -195 448 -113 113 -136 128 -248 157
-128 32 -248 39 -339 18z m295 -67 c30 -8 74 -21 96 -26 32 -9 63 -32 132 -99
49 -49 97 -103 106 -120 9 -18 21 -32 26 -32 6 0 22 -26 36 -57 30 -68 43
-200 34 -358 -5 -91 -9 -108 -46 -185 -38 -80 -87 -150 -103 -150 -4 0 -27
-18 -51 -40 -24 -22 -47 -40 -51 -40 -4 0 -10 -8 -13 -18 -12 -35 -224 -112
-311 -112 -83 0 -163 17 -233 51 -84 39 -189 113 -197 139 -3 10 -14 21 -23
24 -21 7 -83 102 -112 171 -12 28 -25 59 -30 70 -16 35 -30 124 -30 184 0 94
54 277 95 320 31 33 95 121 95 130 0 15 98 91 145 112 22 10 51 19 66 19 14 0
30 5 35 10 31 31 237 36 334 7z"/>
<path d="M1045 1647 c-128 -37 -257 -146 -316 -267 -88 -180 -91 -343 -9 -501
22 -42 40 -83 40 -91 1 -18 67 -88 84 -88 7 0 24 -8 37 -19 13 -10 56 -35 95
-55 133 -70 301 -59 451 30 79 46 154 130 204 228 40 77 42 86 47 190 8 176
-31 294 -131 401 -31 33 -57 63 -57 66 0 15 -102 71 -170 94 -81 28 -201 33
-275 12z m205 -92 c5 -28 9 -30 62 -37 81 -10 151 -43 198 -94 36 -39 53 -83
33 -85 -77 -8 -108 -11 -158 -20 -65 -10 -60 -13 -108 56 -31 44 -39 31 -34
-56 3 -44 7 -82 9 -83 5 -4 139 -34 183 -41 33 -5 49 -16 83 -55 50 -59 62
-86 62 -148 0 -40 -7 -56 -48 -111 -58 -78 -118 -112 -212 -120 l-65 -6 -3
-47 -3 -48 -56 0 -56 0 6 39 c6 51 -5 61 -70 61 -76 0 -162 45 -235 123 -35
35 -58 69 -58 82 0 23 -1 23 234 38 25 2 31 -3 39 -28 9 -30 71 -80 87 -70 10
6 8 155 -3 171 -3 6 -29 14 -56 18 -91 12 -225 88 -249 141 -17 37 -14 114 6
154 18 36 39 52 137 101 41 20 75 30 106 30 43 0 78 18 63 33 -4 3 -4 13 0 22
4 12 17 15 53 13 44 -3 48 -5 53 -33z m350 -297 c23 -50 26 -98 7 -98 -7 0
-33 20 -57 45 -38 39 -42 46 -29 61 11 13 39 30 57 33 2 1 12 -18 22 -41z
m-781 -100 c63 -67 73 -98 34 -98 -10 0 -40 -11 -66 -25 l-47 -26 -10 26 c-20
52 -5 203 19 193 4 -2 36 -33 70 -70z"/>
<path d="M1091 1380 c-17 -15 -31 -35 -31 -43 0 -24 49 -77 71 -77 17 0 19 8
19 69 0 82 -14 94 -59 51z"/>
<path d="M1240 975 c0 -85 5 -89 64 -54 47 27 48 59 4 100 -18 16 -40 29 -50
29 -16 0 -18 -10 -18 -75z"/>
</g>
</svg>
